# AST/ASF file generated using VICON BodyLanguage
# -----------------------------------------------
:version 1.10
:name VICON
:units
  mass 1.0
  length 0.45
  angle deg
:documentation
   .ast/.asf automatically generated from VICON data using
   VICON BodyBuilder and BodyLanguage model FoxedUp or BRILLIANT.MOD
:root
   order TX TY TZ RX RY RZ
   axis XYZ
   position 0 0 0  
   orientation 0 0 0 
:bonedata
  begin
     id 1 
     name lhipjoint
     direction 0.643824 -0.71708 0.266994 
     length 2.52133 
     axis 0 0 0  XYZ
  end
  begin
     id 2 
     name lfemur
     direction 0.34202 -0.939693 0  
     length 7.51824  
     axis 0 0 20  XYZ
    dof rx ry rz
    limits (-160.0 20.0)
           (-70.0 70.0)
           (-60.0 70.0)
  end
  begin
     id 3 
     name ltibia
     direction 0.34202 -0.939693 0   
     length 7.3685   
     axis 0 0 20   XYZ
    dof rx
    limits (-10.0 170.0)
  end
  begin
     id 4 
     name lfoot
     direction 0.105419 -0.289636 0.951314   
     length 2.20972   
     axis -90 7.62852e-016 20   XYZ
    dof rx rz
    limits (-45.0 90.0)
           (-70.0 20.0)
  end
  begin
     id 5 
     name ltoes
     direction 1.53549e-011 -4.21833e-011 1   
     length 1.10139   
     axis -90 7.62852e-016 20   XYZ
    dof rx
    limits (-90.0 20.0)
  end
  begin
     id 6 
     name rhipjoint
     direction -0.608823 -0.743445 0.276811   
     length 2.43192  
     axis 0 0 0  XYZ 
  end
  begin
     id 7 
     name rfemur
     direction -0.34202 -0.939693 0   
     length 7.69715   
     axis 0 0 -20   XYZ
    dof rx ry rz
    limits (-160.0 20.0)
           (-70.0 70.0)
           (-70.0 60.0)
  end
  begin
     id 8 
     name rtibia
     direction -0.34202 -0.939693 0   
     length 7.44924   
     axis 0 0 -20   XYZ
    dof rx
    limits (-10.0 170.0)
 end
 begin
     id 9 
     name rfoot
     direction -0.103614 -0.284677 0.953007   
     length 2.22623  
     axis -90 -7.62852e-016 -20   XYZ
    dof rx rz
    limits (-45.0 90.0)
           (-20.0 70.0)
  end
  begin
     id 10 
     name rtoes
     direction -1.53537e-011 -4.22026e-011 1   
     length 1.11   
     axis -90 -7.62852e-016 -20   XYZ
    dof rx
    limits (-90.0 20.0)
  end
  begin
     id 11 
     name lowerback
     direction -0.0101212 0.99662 -0.0815298   
     length 2.08277   
     axis 0 0 0   XYZ
    dof rx ry rz
    limits (-20.0 45.0)
           (-30.0 30.0)
           (-30.0 30.0)
  end
  begin
     id 12 
     name upperback
     direction 0.024314 0.999591 -0.0150645   
     length 2.08524   
     axis 0 0 0   XYZ
    dof rx ry rz
    limits (-20.0 45.0)
           (-30.0 30.0)
           (-30.0 30.0)
  end
  begin
     id 13 
     name thorax
     direction 0.0285959 0.999323 0.0231357   
     length 2.09645   
     axis 0 0 0   XYZ
    dof rx ry rz
    limits (-20.0 45.0)
           (-30.0 30.0)
           (-30.0 30.0)
  end
  begin
     id 14 
     name lowerneck
     direction -0.065512 0.979301 0.191515   
     length 1.63798   
     axis 0 0 0   XYZ
    dof rx ry rz
    limits (-20.0 45.0)
           (-30.0 30.0)
           (-30.0 30.0)
  end
  begin
     id 15 
     name upperneck
     direction 0.0498479 0.98191 -0.182667   
     length 1.68731   
     axis 0 0 0   XYZ
    dof rx ry rz
    limits (-20.0 45.0)
           (-30.0 30.0)
           (-30.0 30.0)
  end
  begin
     id 16
     name head
     direction 0.0230358 0.996257 -0.0833175  
     length 1.69785  
     axis 0 0 0   XYZ
    dof rx ry rz
    limits (-20.0 45.0)
           (-30.0 30.0)
           (-30.0 30.0)
  end
  begin
     id 17 
     name lclavicle
     direction 0.967963 0.201165 -0.150269  
     length 3.63976  
     axis 0 0 0   XYZ
    dof ry rz
    limits (-20.0 10.0)
           (0.0 20.0)
  end
  begin
     id 18 
     name lhumerus
     direction 1 -4.48954e-011 -2.92837e-028   
     length 5.32462   
     axis 180 -30 -90   XYZ
    dof rx ry rz
    limits (-60.0 90.0)
           (-90.0 90.0)
           (-90.0 90.0)
  end
  begin
     id 19
     name lradius
     direction 1 -4.48958e-011 -6.39511e-027   
     length 3.48402   
     axis 180 -30 -90   XYZ
    dof rx
    limits (-10.0 170.0)
  end
  begin
     id 20
     name lwrist
     direction 1 -4.48975e-011 -1.1413e-026   
     length 1.74201   
     axis 6.88575e-015 90 90   XYZ
    dof ry
    limits (-180.0 0.0)
 end
  begin
     id 21 
     name lhand
     direction 1 -4.48899e-011 -2.28192e-026   
     length 0.572476   
     axis 1.45643e-014 90 90   XYZ
    dof rx rz
    limits (-90.0 90.0)
           (-45.0 45.0)
  end
  begin
     id 22 
     name lfingers
     direction 1 -4.49155e-011 -4.5684e-026   
     length 0.461545   
     axis 2.91283e-014 90 90   XYZ
    dof rx
    limits (0.0 90.0)
  end
  begin
     id 23
     name lthumb
     direction 0.707107 -6.34943e-011 0.707107   
     length 0.662688   
     axis -90 45 -2.25915e-014   XYZ
    dof rx rz
    limits (-45.0 45.0)
           (-45.0 45.0)
  end
  begin
     id 24 
     name rclavicle
     direction -0.964103 0.264019 -0.0282629   
     length 3.54491  
     axis 0 0 0   XYZ 
    dof ry rz
    limits (-10.0 20.0)
           (-20.0 0.0)
  end
  begin
     id 25 
     name rhumerus
     direction -1 -4.48964e-011 -2.45032e-027  
     length 5.33589   
     axis 180 30 90   XYZ
    dof rx ry rz
    limits (-90.0 60.0)
           (-90.0 90.0)
           (-90.0 90.0)
  end
  begin
     id 26 
     name rradius
     direction -1 -4.48987e-011 -1.55093e-027   
     length 3.64134   
     axis 180 30 90   XYZ
    dof rx
    limits (-10.0 170.0)
  end
  begin
     id 27 
     name rwrist
     direction -1 -4.4897e-011 -1.14128e-026   
     length 1.82067   
     axis 6.88575e-015 -90 -90   XYZ
    dof ry
    limits (-180.0 0.0)
  end
  begin
     id 28
     name rhand
     direction -1 -4.49021e-011 -2.28301e-026   
     length 0.734811   
     axis 1.45643e-014 -90 -90   XYZ
    dof rx rz
    limits (-90.0 90.0)
           (-45.0 45.0)
  end
  begin
     id 29
     name rfingers
     direction -1 -4.48862e-011 -4.56319e-026   
     length 0.592424   
     axis 2.91283e-014 -90 -90   XYZ
    dof rx
    limits (0.0 90.0)
  end
  begin
     id 30
     name rthumb
     direction -0.707107 -6.34978e-011 0.707107   
     length 0.850605   
     axis -90 -45 2.25915e-014   XYZ
    dof rx rz
    limits (-45.0 45.0)
           (-45.0 45.0)
  end
:hierarchy
  begin
    root lhipjoint rhipjoint lowerback
    lhipjoint lfemur
    lfemur ltibia
    ltibia lfoot
    lfoot ltoes
    rhipjoint rfemur
    rfemur rtibia
    rtibia rfoot
    rfoot rtoes
    lowerback upperback
    upperback thorax
    thorax lowerneck lclavicle rclavicle
    lowerneck upperneck
    upperneck head
    lclavicle lhumerus
    lhumerus lradius
    lradius lwrist
    lwrist lhand lthumb
    lhand lfingers
    rclavicle rhumerus
    rhumerus rradius
    rradius rwrist
    rwrist rhand rthumb
    rhand rfingers
  end

#!OML:ASF F:\VICON\USERDATA\INSTALL\rory3\rory3.ASF
:FULLY-SPECIFIED
:DEGREES
197
root 2.40497 14.5799 -1.43125 37.2014 -4.76343 -0.17103
lowerback 39.1598 -0.129474 0.226214
upperback 13.3548 -0.169392 -0.147192
thorax -4.23252 -0.0973267 -0.208793
lowerneck -9.02859 1.44894 -13.8388
upperneck 28.0966 4.5906 0.582016
head 10.2333 0.756532 3.06093
rclavicle 3.47873e-015 1.4033e-014
rhumerus -16.8392 27.3885 -81.1611
rradius 47.4451
rwrist 17.3451
rhand -37.2706 8.09108
rfingers 7.12502
rthumb -10.3357 -21.6349
lclavicle 3.47873e-015 1.4033e-014
lhumerus -13.0898 -19.3465 85.7351
lradius 38.3941
lwrist -4.39563
lhand -25.2779 25.6192
lfingers 7.12502
lthumb 1.24313 55.5953
rfemur -91.5423 -6.16357 16.8318
rtibia 75.5085
rfoot -14.9354 1.84005
rtoes 0.355566
lfemur -91.9057 7.74355 -18.2115
ltibia 70.9674
lfoot -13.8997 -13.0136
ltoes -12.0656
198
root 2.43661 14.4933 -1.47124 37.2589 -4.89932 -0.196297
lowerback 39.336 -0.141479 0.359007
upperback 13.4542 -0.133904 -0.0561072
thorax -4.17704 -0.0822409 -0.194047
lowerneck -8.84081 1.36261 -14.0093
upperneck 28.0839 4.4134 0.798443
head 10.1953 0.686405 3.14446
rclavicle -2.36057e-015 4.56894e-015
rhumerus -16.6686 27.5547 -81.2728
rradius 47.0404
rwrist 17.9945
rhand -38.0324 7.9909
rfingers 7.12502
rthumb -11.0705 -21.6971
lclavicle -2.36057e-015 4.56894e-015
lhumerus -13.0591 -19.8126 86.1011
lradius 38.3835
lwrist -4.70431
lhand -25.4852 25.2562
lfingers 7.12502
lthumb 1.04299 55.2334
rfemur -92.3414 -6.25626 16.8108
rtibia 76.3016
rfoot -15.0797 2.00401
rtoes 0.633432
lfemur -92.7715 7.68637 -18.2374
ltibia 71.9992
lfoot -14.1834 -12.735
ltoes -12.3856
199
root 2.46581 14.409 -1.51627 37.3225 -4.92395 -0.282167
lowerback 39.5247 -0.168257 0.512435
upperback 13.521 -0.101497 0.100502
thorax -4.16079 -0.0708496 -0.119672
lowerneck -8.72448 1.29964 -14.1655
upperneck 28.2154 4.28016 1.03028
head 10.2213 0.629559 3.24088
rclavicle 7.45443e-017 -8.27286e-015
rhumerus -16.6118 27.6552 -81.3727
rradius 46.8309
rwrist 18.5767
rhand -38.8477 8.06868
rfingers 7.12502
rthumb -11.8568 -21.5756
lclavicle 7.45443e-017 -8.27286e-015
lhumerus -13.1282 -20.4116 86.4827
lradius 38.4139
lwrist -4.67461
lhand -25.4081 25.0487
lfingers 7.12502
lthumb 1.11741 55.0255
rfemur -93.1516 -6.35467 16.9228
rtibia 77.0682
rfoot -15.1364 2.00542
rtoes 0.52546
lfemur -93.6332 7.58309 -18.1147
ltibia 72.9384
lfoot -14.3488 -12.4372
ltoes -12.5369
200
root 2.4907 14.3168 -1.56046 37.3921 -5.05976 -0.3173
lowerback 39.6722 -0.121647 0.515631
upperback 13.5539 -0.0386311 0.215002
thorax -4.16925 -0.0478433 -0.0230831
lowerneck -8.39699 1.22209 -13.9593
upperneck 28.124 4.12709 0.82642
head 10.1472 0.568023 3.11084
rclavicle 2.37299e-015 1.38761e-015
rhumerus -16.6642 27.5583 -81.5279
rradius 46.7116
rwrist 19.2976
rhand -39.7432 8.11925
rfingers 7.12502
rthumb -12.7202 -21.4733
lclavicle 2.37299e-015 1.38761e-015
lhumerus -13.396 -21.194 86.861
lradius 38.6268
lwrist -4.59051
lhand -25.4377 25.2979
lfingers 7.12502
lthumb 1.08885 55.2749
rfemur -94.0119 -6.36186 16.9272
rtibia 77.8256
rfoot -15.0986 1.94168
rtoes 0.322178
lfemur -94.5125 7.57481 -18.1387
ltibia 73.8557
lfoot -14.5223 -12.1984
ltoes -12.8913
201
root 2.51625 14.2226 -1.60433 37.4494 -5.11771 -0.389043
lowerback 39.806 -0.119792 0.627278
upperback 13.5624 0.00828736 0.306423
thorax -4.20008 -0.0280362 -0.00107364
lowerneck -8.16735 1.10294 -13.6048
upperneck 28.17 3.95389 0.483655
head 10.151 0.489115 2.91096
rclavicle -5.26779e-015 -1.08765e-014
rhumerus -16.8154 27.2554 -81.7665
rradius 46.6982
rwrist 19.8759
rhand -40.8783 8.46787
rfingers 7.12502
rthumb -13.8143 -21.0534
lclavicle -5.26779e-015 -1.08765e-014
lhumerus -13.781 -22.0186 87.1981
lradius 38.9819
lwrist -4.39747
lhand -25.7092 25.4429
lfingers 7.12502
lthumb 0.826608 55.4211
rfemur -94.8521 -6.43771 17.0659
rtibia 78.632
rfoot -15.1066 1.89103
rtoes -0.429048
lfemur -95.4661 7.52385 -17.9989
ltibia 74.812
lfoot -14.385 -12.1697
ltoes -11.0994
202
root 2.54072 14.1257 -1.64784 37.4844 -5.1027 -0.495021
lowerback 39.9254 -0.142185 0.785623
upperback 13.5917 0.0475631 0.444743
thorax -4.20329 -0.0125282 0.0490492
lowerneck -8.04757 0.978823 -13.3004
upperneck 28.251 3.79884 0.162978
head 10.1851 0.413016 2.73161
rclavicle -9.93923e-016 9.10527e-015
rhumerus -16.9022 26.9963 -82.0602
rradius 46.6455
rwrist 20.1781
rhand -42.3634 8.77417
rfingers 7.12502
rthumb -15.2452 -20.6441
lclavicle -9.93923e-016 9.10527e-015
lhumerus -14.0537 -22.7041 87.5179
lradius 39.282
lwrist -4.01419
lhand -25.913 24.9117
lfingers 7.12502
lthumb 0.629784 54.8905
rfemur -95.6879 -6.56549 17.2901
rtibia 79.5264
rfoot -15.1354 1.93751
rtoes -1.0919
lfemur -96.4166 7.4473 -17.7481
ltibia 75.8222
lfoot -14.3055 -12.2049
ltoes -9.06988
203
root 2.55924 14.0138 -1.68799 37.4108 -5.17236 -0.503431
lowerback 40.1472 -0.0901025 0.752938
upperback 13.6351 0.109087 0.588991
thorax -4.2226 0.00762664 0.196008
lowerneck -7.8463 0.900026 -13.0371
upperneck 28.1877 3.66353 -0.0547919
head 10.1421 0.36114 2.59307
rclavicle -6.90777e-015 -5.08765e-015
rhumerus -17.0174 26.884 -82.2953
rradius 46.6804
rwrist 20.5698
rhand -43.9026 8.67823
rfingers 7.12502
rthumb -16.7275 -20.6211
lclavicle -6.90777e-015 -5.08765e-015
lhumerus -14.3016 -23.3256 87.8589
lradius 39.5673
lwrist -3.9682
lhand -25.992 24.6551
lfingers 7.12502
lthumb 0.55349 54.6341
rfemur -96.5207 -6.65729 17.3554
rtibia 80.5149
rfoot -15.1945 1.85835
rtoes -2.33408
lfemur -97.1865 7.37948 -17.7246
ltibia 76.9024
lfoot -14.737 -11.8622
ltoes -11.1889
204
root 2.57802 13.9036 -1.72999 37.2752 -5.28136 -0.481658
lowerback 40.3952 -0.0444051 0.711255
upperback 13.6672 0.155189 0.677008
thorax -4.26197 0.0227603 0.293871
lowerneck -7.61495 0.843532 -12.9096
upperneck 28.1112 3.51923 -0.0507222
head 10.0788 0.315688 2.55438
rclavicle -4.32357e-015 -2.37765e-014
rhumerus -17.213 26.5515 -82.5927
rradius 46.7345
rwrist 21.229
rhand -45.3068 8.56718
rfingers 7.12502
rthumb -18.0788 -20.6126
lclavicle -4.32357e-015 -2.37765e-014
lhumerus -14.6991 -24.0645 88.2052
lradius 39.9934
lwrist -3.92564
lhand -26.661 24.3549
lfingers 7.12502
lthumb -0.0926251 54.3346
rfemur -97.2874 -6.71196 17.2895
rtibia 81.482
rfoot -15.2921 1.73321
rtoes -3.36227
lfemur -97.9051 7.30623 -17.7695
ltibia 77.9798
lfoot -15.2342 -11.3685
ltoes -13.9301
205
root 2.59739 13.8094 -1.77666 37.1236 -5.42756 -0.34986
lowerback 40.612 0.0142773 0.590508
upperback 13.6633 0.189938 0.767879
thorax -4.33222 0.0308805 0.439424
lowerneck -7.1885 0.770574 -12.8296
upperneck 27.8981 3.33598 -0.0912234
head 9.93247 0.252754 2.49911
rclavicle 2.98177e-015 8.32721e-015
rhumerus -17.4838 26.2206 -82.8368
rradius 46.8701
rwrist 21.6196
rhand -46.6151 7.40091
rfingers 7.12502
rthumb -19.3372 -21.6576
lclavicle 2.98177e-015 8.32721e-015
lhumerus -15.1726 -24.7455 88.636
lradius 40.4918
lwrist -3.79711
lhand -26.9063 24.0191
lfingers 7.12502
lthumb -0.329546 53.9986
rfemur -97.9918 -6.87576 17.1894
rtibia 82.342
rfoot -15.3236 1.7702
rtoes -3.84561
lfemur -98.5642 7.19638 -17.9258
ltibia 78.9399
lfoot -15.4851 -11.0531
ltoes -14.2702
